<?xml version="1.0" standalone="no"?>
<!DOCTYPE svg PUBLIC "-//W3C//DTD SVG 20010904//EN"
 "http://www.w3.org/TR/2001/REC-SVG-20010904/DTD/svg10.dtd">
<svg version="1.0" xmlns="http://www.w3.org/2000/svg"
 width="512.000000pt" height="512.000000pt" viewBox="0 0 512.000000 512.000000"
 preserveAspectRatio="xMidYMid meet">
<metadata>
Created by potrace 1.11, written by Peter Selinger 2001-2013
</metadata>
<g transform="translate(0.000000,512.000000) scale(0.100000,-0.100000)"
fill="#000000" stroke="none">
<path d="M2340 4900 c-395 -38 -755 -168 -1095 -394 -187 -124 -392 -314 -525
-486 -19 -25 -37 -47 -41 -50 -21 -16 -166 -253 -217 -355 -88 -174 -131 -291
-183 -495 -20 -80 -22 -90 -34 -160 -4 -25 -9 -53 -11 -64 -13 -69 -19 -186
-18 -346 0 -166 3 -213 19 -327 45 -335 181 -686 378 -978 292 -431 718 -753
1219 -920 74 -24 249 -68 313 -78 17 -3 46 -8 65 -11 82 -14 126 -17 320 -21
113 -1 230 1 260 6 30 5 80 11 110 14 30 4 62 8 70 10 8 3 31 7 50 10 66 11
315 82 365 104 11 5 36 15 55 22 83 30 264 125 405 212 39 24 220 161 259 196
58 52 184 178 235 236 46 52 201 260 201 270 0 4 13 25 29 48 41 60 143 266
185 375 60 152 113 364 132 517 3 22 7 51 10 65 10 46 13 414 3 485 -4 39 -11
92 -15 119 -3 27 -8 58 -10 70 -2 12 -7 35 -10 51 -50 281 -202 631 -381 882
-145 202 -301 369 -463 493 -18 14 -44 34 -59 46 -154 122 -425 264 -644 339
-96 32 -284 81 -346 89 -39 6 -102 15 -141 22 -55 9 -407 12 -490 4z"/>
</g>
</svg>
